# Blender 3.2.1
# www.blender.org
o Torus
v 1.000000 0.000000 0.000000
v 0.926777 0.000000 0.176777
v 0.750000 0.000000 0.250000
v 0.573223 0.000000 0.176777
v 0.500000 0.000000 0.000000
v 0.923880 0.382683 0.000000
v 0.856230 0.354662 0.176777
v 0.692910 0.287013 0.250000
v 0.529589 0.219363 0.176777
v 0.461940 0.191342 0.000000
v 0.707107 0.707107 0.000000
v 0.655330 0.655330 0.176777
v 0.530330 0.530330 0.250000
v 0.405330 0.405330 0.176777
v 0.353553 0.353553 0.000000
v 0.382684 0.923879 0.000000
v 0.354662 0.856230 0.176777
v 0.287013 0.692910 0.250000
v 0.219363 0.529589 0.176777
v 0.191342 0.461940 0.000000
v 0.000000 1.000000 0.000000
v 0.000000 0.926777 0.176777
v 0.000000 0.750000 0.250000
v 0.000000 0.573223 0.176777
v 0.000000 0.500000 0.000000
v -0.382684 0.923880 0.000000
v -0.354662 0.856230 0.176777
v -0.287013 0.692910 0.250000
v -0.219363 0.529589 0.176777
v -0.191342 0.461940 0.000000
v -0.707107 0.707107 0.000000
v -0.655330 0.655330 0.176777
v -0.530330 0.530330 0.250000
v -0.405330 0.405330 0.176777
v -0.353553 0.353553 0.000000
v -0.923880 0.382683 0.000000
v -0.856230 0.354662 0.176777
v -0.692910 0.287013 0.250000
v -0.529589 0.219363 0.176777
v -0.461940 0.191342 0.000000
v -1.000000 0.000000 0.000000
v -0.926777 0.000000 0.176777
v -0.750000 0.000000 0.250000
v -0.573223 0.000000 0.176777
v -0.500000 0.000000 0.000000
v -0.923880 -0.382683 0.000000
v -0.856230 -0.354662 0.176777
v -0.692910 -0.287012 0.250000
v -0.529589 -0.219363 0.176777
v -0.461940 -0.191342 0.000000
v -0.707107 -0.707107 0.000000
v -0.655330 -0.655330 0.176777
v -0.530330 -0.530330 0.250000
v -0.405330 -0.405330 0.176777
v -0.353553 -0.353553 0.000000
v -0.382684 -0.923880 0.000000
v -0.354662 -0.856230 0.176777
v -0.287013 -0.692910 0.250000
v -0.219363 -0.529589 0.176777
v -0.191342 -0.461940 0.000000
v 0.000000 -1.000000 0.000000
v 0.000000 -0.926777 0.176777
v 0.000000 -0.750000 0.250000
v 0.000000 -0.573223 0.176777
v 0.000000 -0.500000 0.000000
v 0.382684 -0.923879 0.000000
v 0.354662 -0.856230 0.176777
v 0.287013 -0.692910 0.250000
v 0.219363 -0.529589 0.176777
v 0.191342 -0.461940 0.000000
v 0.707106 -0.707107 0.000000
v 0.655330 -0.655330 0.176777
v 0.530330 -0.530330 0.250000
v 0.405330 -0.405330 0.176777
v 0.353553 -0.353554 0.000000
v 0.923879 -0.382684 0.000000
v 0.856230 -0.354662 0.176777
v 0.692910 -0.287013 0.250000
v 0.529589 -0.219363 0.176777
v 0.461940 -0.191342 0.000000
vn 0.8536 0.3536 0.3827
vn 0.7294 -0.0000 0.6840
vn 0.9239 -0.0000 0.3827
vn 0.6739 0.2791 0.6840
vn 0.0477 -0.0000 0.9989
vn 0.0441 0.0183 0.9989
vn -0.6816 -0.0000 0.7317
vn -0.6297 -0.2608 0.7317
vn -0.9239 -0.0000 0.3827
vn 0.6533 0.6533 0.3827
vn 0.5158 0.5158 0.6840
vn 0.0338 0.0338 0.9989
vn -0.4820 -0.4820 0.7317
vn -0.8536 -0.3536 0.3827
vn 0.2791 0.6739 0.6840
vn 0.0183 0.0441 0.9989
vn -0.2608 -0.6297 0.7317
vn -0.6533 -0.6533 0.3827
vn -0.0000 0.9239 0.3827
vn 0.3536 0.8536 0.3827
vn -0.0000 0.7294 0.6840
vn -0.0000 0.0477 0.9989
vn -0.0000 -0.6816 0.7317
vn -0.3536 -0.8536 0.3827
vn -0.3536 0.8536 0.3827
vn -0.2791 0.6739 0.6840
vn -0.0183 0.0441 0.9989
vn 0.2608 -0.6297 0.7317
vn -0.0000 -0.9239 0.3827
vn -0.6533 0.6533 0.3827
vn -0.5158 0.5158 0.6840
vn -0.0338 0.0338 0.9989
vn 0.6533 -0.6533 0.3827
vn 0.3536 -0.8536 0.3827
vn -0.6739 0.2791 0.6840
vn -0.0441 0.0183 0.9989
vn 0.4820 -0.4820 0.7317
vn 0.6297 -0.2608 0.7317
vn -0.8536 0.3536 0.3827
vn -0.7294 -0.0000 0.6840
vn -0.0477 -0.0000 0.9989
vn 0.8536 -0.3536 0.3827
vn -0.6739 -0.2791 0.6840
vn -0.0441 -0.0183 0.9989
vn 0.6816 -0.0000 0.7317
vn 0.6297 0.2608 0.7317
vn -0.5158 -0.5158 0.6840
vn -0.0338 -0.0338 0.9989
vn 0.4820 0.4820 0.7317
vn -0.2791 -0.6739 0.6840
vn -0.0183 -0.0441 0.9989
vn -0.0000 -0.7294 0.6840
vn -0.0000 0.6816 0.7317
vn 0.2608 0.6297 0.7317
vn 0.2791 -0.6739 0.6840
vn -0.0000 -0.0477 0.9989
vn 0.0183 -0.0441 0.9989
vn 0.5158 -0.5158 0.6840
vn 0.0338 -0.0338 0.9989
vn -0.2608 0.6297 0.7317
vn -0.4820 0.4820 0.7317
vn 0.6739 -0.2791 0.6840
vn 0.0441 -0.0183 0.9989
vn -0.6297 0.2608 0.7317
vt 0.500000 0.500000
vt 0.500000 0.625000
vt 0.500000 0.750000
vt 0.500000 0.875000
vt 0.500000 1.000000
vt 0.562500 0.500000
vt 0.562500 0.625000
vt 0.562500 0.750000
vt 0.562500 0.875000
vt 0.562500 1.000000
vt 0.625000 0.500000
vt 0.625000 0.625000
vt 0.625000 0.750000
vt 0.625000 0.875000
vt 0.625000 1.000000
vt 0.687500 0.500000
vt 0.687500 0.625000
vt 0.687500 0.750000
vt 0.687500 0.875000
vt 0.687500 1.000000
vt 0.750000 0.500000
vt 0.750000 0.625000
vt 0.750000 0.750000
vt 0.750000 0.875000
vt 0.750000 1.000000
vt 0.812500 0.500000
vt 0.812500 0.625000
vt 0.812500 0.750000
vt 0.812500 0.875000
vt 0.812500 1.000000
vt 0.875000 0.500000
vt 0.875000 0.625000
vt 0.875000 0.750000
vt 0.875000 0.875000
vt 0.875000 1.000000
vt 0.937500 0.500000
vt 0.937500 0.625000
vt 0.937500 0.750000
vt 0.937500 0.875000
vt 0.937500 1.000000
vt 0.000000 0.500000
vt 1.000000 0.500000
vt 1.000000 0.625000
vt 0.000000 0.625000
vt 1.000000 0.750000
vt 0.000000 0.750000
vt 1.000000 0.875000
vt 0.000000 0.875000
vt 1.000000 1.000000
vt 0.000000 1.000000
vt 0.062500 0.500000
vt 0.062500 0.625000
vt 0.062500 0.750000
vt 0.062500 0.875000
vt 0.062500 1.000000
vt 0.125000 0.500000
vt 0.125000 0.625000
vt 0.125000 0.750000
vt 0.125000 0.875000
vt 0.125000 1.000000
vt 0.187500 0.500000
vt 0.187500 0.625000
vt 0.187500 0.750000
vt 0.187500 0.875000
vt 0.187500 1.000000
vt 0.250000 0.500000
vt 0.250000 0.625000
vt 0.250000 0.750000
vt 0.250000 0.875000
vt 0.250000 1.000000
vt 0.312500 0.500000
vt 0.312500 0.625000
vt 0.312500 0.750000
vt 0.312500 0.875000
vt 0.312500 1.000000
vt 0.375000 0.500000
vt 0.375000 0.625000
vt 0.375000 0.750000
vt 0.375000 0.875000
vt 0.375000 1.000000
vt 0.437500 0.500000
vt 0.437500 0.625000
vt 0.437500 0.750000
vt 0.437500 0.875000
vt 0.437500 1.000000
s 1
f 6/6/1 2/2/2 1/1/3
f 7/7/4 3/3/5 2/2/2
f 8/8/6 4/4/7 3/3/5
f 9/9/8 5/5/9 4/4/7
f 11/11/10 7/7/4 6/6/1
f 12/12/11 8/8/6 7/7/4
f 13/13/12 9/9/8 8/8/6
f 14/14/13 10/10/14 9/9/8
f 11/11/10 17/17/15 12/12/11
f 17/17/15 13/13/12 12/12/11
f 18/18/16 14/14/13 13/13/12
f 19/19/17 15/15/18 14/14/13
f 21/21/19 17/17/15 16/16/20
f 22/22/21 18/18/16 17/17/15
f 23/23/22 19/19/17 18/18/16
f 24/24/23 20/20/24 19/19/17
f 26/26/25 22/22/21 21/21/19
f 27/27/26 23/23/22 22/22/21
f 28/28/27 24/24/23 23/23/22
f 29/29/28 25/25/29 24/24/23
f 31/31/30 27/27/26 26/26/25
f 32/32/31 28/28/27 27/27/26
f 33/33/32 29/29/28 28/28/27
f 29/29/28 35/35/33 30/30/34
f 31/31/30 37/37/35 32/32/31
f 37/37/35 33/33/32 32/32/31
f 38/38/36 34/34/37 33/33/32
f 39/39/38 35/35/33 34/34/37
f 36/36/39 42/43/40 37/37/35
f 42/43/40 38/38/36 37/37/35
f 43/45/41 39/39/38 38/38/36
f 39/39/38 45/49/3 40/40/42
f 46/51/14 42/44/40 41/41/9
f 47/52/43 43/46/41 42/44/40
f 48/53/44 44/48/45 43/46/41
f 49/54/46 45/50/3 44/48/45
f 51/56/18 47/52/43 46/51/14
f 52/57/47 48/53/44 47/52/43
f 53/58/48 49/54/46 48/53/44
f 54/59/49 50/55/1 49/54/46
f 51/56/18 57/62/50 52/57/47
f 52/57/47 58/63/51 53/58/48
f 58/63/51 54/59/49 53/58/48
f 54/59/49 60/65/20 55/60/10
f 56/61/24 62/67/52 57/62/50
f 62/67/52 58/63/51 57/62/50
f 58/63/51 64/69/53 59/64/54
f 64/69/53 60/65/20 59/64/54
f 61/66/29 67/72/55 62/67/52
f 67/72/55 63/68/56 62/67/52
f 68/73/57 64/69/53 63/68/56
f 64/69/53 70/75/25 65/70/19
f 66/71/34 72/77/58 67/72/55
f 72/77/58 68/73/57 67/72/55
f 73/78/59 69/74/60 68/73/57
f 74/79/61 70/75/25 69/74/60
f 76/81/42 72/77/58 71/76/33
f 77/82/62 73/78/59 72/77/58
f 78/83/63 74/79/61 73/78/59
f 79/84/64 75/80/30 74/79/61
f 1/1/3 77/82/62 76/81/42
f 77/82/62 3/3/5 78/83/63
f 3/3/5 79/84/64 78/83/63
f 4/4/7 80/85/39 79/84/64
f 6/6/1 7/7/4 2/2/2
f 7/7/4 8/8/6 3/3/5
f 8/8/6 9/9/8 4/4/7
f 9/9/8 10/10/14 5/5/9
f 11/11/10 12/12/11 7/7/4
f 12/12/11 13/13/12 8/8/6
f 13/13/12 14/14/13 9/9/8
f 14/14/13 15/15/18 10/10/14
f 11/11/10 16/16/20 17/17/15
f 17/17/15 18/18/16 13/13/12
f 18/18/16 19/19/17 14/14/13
f 19/19/17 20/20/24 15/15/18
f 21/21/19 22/22/21 17/17/15
f 22/22/21 23/23/22 18/18/16
f 23/23/22 24/24/23 19/19/17
f 24/24/23 25/25/29 20/20/24
f 26/26/25 27/27/26 22/22/21
f 27/27/26 28/28/27 23/23/22
f 28/28/27 29/29/28 24/24/23
f 29/29/28 30/30/34 25/25/29
f 31/31/30 32/32/31 27/27/26
f 32/32/31 33/33/32 28/28/27
f 33/33/32 34/34/37 29/29/28
f 29/29/28 34/34/37 35/35/33
f 31/31/30 36/36/39 37/37/35
f 37/37/35 38/38/36 33/33/32
f 38/38/36 39/39/38 34/34/37
f 39/39/38 40/40/42 35/35/33
f 36/36/39 41/42/9 42/43/40
f 42/43/40 43/45/41 38/38/36
f 43/45/41 44/47/45 39/39/38
f 39/39/38 44/47/45 45/49/3
f 46/51/14 47/52/43 42/44/40
f 47/52/43 48/53/44 43/46/41
f 48/53/44 49/54/46 44/48/45
f 49/54/46 50/55/1 45/50/3
f 51/56/18 52/57/47 47/52/43
f 52/57/47 53/58/48 48/53/44
f 53/58/48 54/59/49 49/54/46
f 54/59/49 55/60/10 50/55/1
f 51/56/18 56/61/24 57/62/50
f 52/57/47 57/62/50 58/63/51
f 58/63/51 59/64/54 54/59/49
f 54/59/49 59/64/54 60/65/20
f 56/61/24 61/66/29 62/67/52
f 62/67/52 63/68/56 58/63/51
f 58/63/51 63/68/56 64/69/53
f 64/69/53 65/70/19 60/65/20
f 61/66/29 66/71/34 67/72/55
f 67/72/55 68/73/57 63/68/56
f 68/73/57 69/74/60 64/69/53
f 64/69/53 69/74/60 70/75/25
f 66/71/34 71/76/33 72/77/58
f 72/77/58 73/78/59 68/73/57
f 73/78/59 74/79/61 69/74/60
f 74/79/61 75/80/30 70/75/25
f 76/81/42 77/82/62 72/77/58
f 77/82/62 78/83/63 73/78/59
f 78/83/63 79/84/64 74/79/61
f 79/84/64 80/85/39 75/80/30
f 1/1/3 2/2/2 77/82/62
f 77/82/62 2/2/2 3/3/5
f 3/3/5 4/4/7 79/84/64
f 4/4/7 5/5/9 80/85/39
